# xmcd
#
# Track frame offsets: 
#        150
#        18605
#        31071
#        53433
#        67100
#        90053
#        103109
#        124303
#        141259
#        164812
#        186572
#
# Disc length: 2743 seconds
#
# Revision: 1
# Processed by: cddbd v1.5.2PL0 Copyright (c) Steve Scherf et al.
# Submitted via: ExactAudioCopy v1.0b1
#
DISCID=990ab50b
DTITLE=Chris LeDoux - Haywire
DYEAR=1994
DGENRE=Country
TTITLE0=Honky Tonk World
TTITLE1=Dallas Days And Fort Worth Nights
TTITLE2=Tougher Than The Rest
TTITLE3=Big Love
TTITLE4=Love Needs A Fool
TTITLE5=Slow Down
TTITLE6=Sons Of The Pioneers
TTITLE7=Billy The Kid
TTITLE8=Hairtrigger Colt's .44
TTITLE9=Light Of The World
TTITLE10=Six Bucks A Day (Bonus Track)
EXTD=
EXTT0=
EXTT1=
EXTT2=
EXTT3=
EXTT4=
EXTT5=
EXTT6=
EXTT7=
EXTT8=
EXTT9=
EXTT10=
PLAYORDER=
